<mxfile host="app.diagrams.net" modified="2023-07-02T19:54:11.358Z" agent="Mozilla/5.0 (Macintosh; Intel Mac OS X 10_15_7) AppleWebKit/605.1.15 (KHTML, like Gecko) Version/16.5 Safari/605.1.15" etag="IEQ73YPUAvRL7pCLakz0" version="21.5.2">
  <diagram name="Page-1" id="aYb7wwE6xax8FoPDSQ0R">
    <mxGraphModel dx="954" dy="647" grid="1" gridSize="10" guides="1" tooltips="1" connect="1" arrows="1" fold="1" page="1" pageScale="1" pageWidth="850" pageHeight="1100" math="0" shadow="0">
      <root>
        <mxCell id="0" />
        <mxCell id="1" parent="0" />
        <mxCell id="sxw_OFa6wer7StP_Gr9c-26" value="" style="endArrow=classic;html=1;rounded=0;entryX=0.544;entryY=0.012;entryDx=0;entryDy=0;entryPerimeter=0;exitX=0.463;exitY=1.077;exitDx=0;exitDy=0;exitPerimeter=0;" edge="1" parent="1" source="sxw_OFa6wer7StP_Gr9c-52" target="sxw_OFa6wer7StP_Gr9c-37">
          <mxGeometry width="50" height="50" relative="1" as="geometry">
            <mxPoint x="400" y="260" as="sourcePoint" />
            <mxPoint x="421.96000000000004" y="126" as="targetPoint" />
          </mxGeometry>
        </mxCell>
        <mxCell id="sxw_OFa6wer7StP_Gr9c-27" value="" style="endArrow=classic;html=1;rounded=0;exitX=1;exitY=0;exitDx=0;exitDy=0;entryX=0;entryY=0.846;entryDx=0;entryDy=0;entryPerimeter=0;" edge="1" parent="1" source="sxw_OFa6wer7StP_Gr9c-45" target="sxw_OFa6wer7StP_Gr9c-40">
          <mxGeometry width="50" height="50" relative="1" as="geometry">
            <mxPoint x="250" y="220" as="sourcePoint" />
            <mxPoint x="350" y="121.99599999999998" as="targetPoint" />
            <Array as="points" />
          </mxGeometry>
        </mxCell>
        <mxCell id="sxw_OFa6wer7StP_Gr9c-28" value="" style="endArrow=classic;html=1;rounded=0;exitX=1.013;exitY=0.115;exitDx=0;exitDy=0;entryX=-0.006;entryY=-0.038;entryDx=0;entryDy=0;entryPerimeter=0;exitPerimeter=0;" edge="1" parent="1" source="sxw_OFa6wer7StP_Gr9c-42" target="sxw_OFa6wer7StP_Gr9c-38">
          <mxGeometry width="50" height="50" relative="1" as="geometry">
            <mxPoint x="160" y="135" as="sourcePoint" />
            <mxPoint x="350" y="60" as="targetPoint" />
          </mxGeometry>
        </mxCell>
        <mxCell id="sxw_OFa6wer7StP_Gr9c-29" value="" style="endArrow=classic;html=1;rounded=0;entryX=1;entryY=0;entryDx=0;entryDy=0;exitX=-0.006;exitY=1;exitDx=0;exitDy=0;exitPerimeter=0;" edge="1" parent="1" source="sxw_OFa6wer7StP_Gr9c-60" target="sxw_OFa6wer7StP_Gr9c-37">
          <mxGeometry width="50" height="50" relative="1" as="geometry">
            <mxPoint x="630" y="290" as="sourcePoint" />
            <mxPoint x="490" y="121.99599999999998" as="targetPoint" />
          </mxGeometry>
        </mxCell>
        <mxCell id="sxw_OFa6wer7StP_Gr9c-30" value="" style="endArrow=classic;html=1;rounded=0;exitX=0;exitY=0;exitDx=0;exitDy=0;entryX=0.981;entryY=1;entryDx=0;entryDy=0;entryPerimeter=0;" edge="1" parent="1" source="sxw_OFa6wer7StP_Gr9c-53" target="sxw_OFa6wer7StP_Gr9c-40">
          <mxGeometry width="50" height="50" relative="1" as="geometry">
            <mxPoint x="668.04" y="109.99800000000005" as="sourcePoint" />
            <mxPoint x="470" y="420" as="targetPoint" />
          </mxGeometry>
        </mxCell>
        <mxCell id="sxw_OFa6wer7StP_Gr9c-37" value="Vehicle" style="swimlane;fontStyle=1;align=center;verticalAlign=top;childLayout=stackLayout;horizontal=1;startSize=26;horizontalStack=0;resizeParent=1;resizeParentMax=0;resizeLast=0;collapsible=1;marginBottom=0;whiteSpace=wrap;html=1;" vertex="1" parent="1">
          <mxGeometry x="340" y="480" width="160" height="94" as="geometry" />
        </mxCell>
        <mxCell id="sxw_OFa6wer7StP_Gr9c-38" value="+ make()&lt;br&gt;+ year()" style="text;strokeColor=none;fillColor=none;align=left;verticalAlign=top;spacingLeft=4;spacingRight=4;overflow=hidden;rotatable=0;points=[[0,0.5],[1,0.5]];portConstraint=eastwest;whiteSpace=wrap;html=1;" vertex="1" parent="sxw_OFa6wer7StP_Gr9c-37">
          <mxGeometry y="26" width="160" height="34" as="geometry" />
        </mxCell>
        <mxCell id="sxw_OFa6wer7StP_Gr9c-39" value="" style="line;strokeWidth=1;fillColor=none;align=left;verticalAlign=middle;spacingTop=-1;spacingLeft=3;spacingRight=3;rotatable=0;labelPosition=right;points=[];portConstraint=eastwest;strokeColor=inherit;" vertex="1" parent="sxw_OFa6wer7StP_Gr9c-37">
          <mxGeometry y="60" width="160" height="8" as="geometry" />
        </mxCell>
        <mxCell id="sxw_OFa6wer7StP_Gr9c-40" value="+ method(type): type" style="text;strokeColor=none;fillColor=none;align=left;verticalAlign=top;spacingLeft=4;spacingRight=4;overflow=hidden;rotatable=0;points=[[0,0.5],[1,0.5]];portConstraint=eastwest;whiteSpace=wrap;html=1;" vertex="1" parent="sxw_OFa6wer7StP_Gr9c-37">
          <mxGeometry y="68" width="160" height="26" as="geometry" />
        </mxCell>
        <mxCell id="sxw_OFa6wer7StP_Gr9c-41" value="Honda" style="swimlane;fontStyle=1;align=center;verticalAlign=top;childLayout=stackLayout;horizontal=1;startSize=26;horizontalStack=0;resizeParent=1;resizeParentMax=0;resizeLast=0;collapsible=1;marginBottom=0;whiteSpace=wrap;html=1;" vertex="1" parent="1">
          <mxGeometry x="50" y="320" width="160" height="94" as="geometry" />
        </mxCell>
        <mxCell id="sxw_OFa6wer7StP_Gr9c-42" value="+ model()&lt;br&gt;+ vehicleType()" style="text;strokeColor=none;fillColor=none;align=left;verticalAlign=top;spacingLeft=4;spacingRight=4;overflow=hidden;rotatable=0;points=[[0,0.5],[1,0.5]];portConstraint=eastwest;whiteSpace=wrap;html=1;" vertex="1" parent="sxw_OFa6wer7StP_Gr9c-41">
          <mxGeometry y="26" width="160" height="34" as="geometry" />
        </mxCell>
        <mxCell id="sxw_OFa6wer7StP_Gr9c-43" value="" style="line;strokeWidth=1;fillColor=none;align=left;verticalAlign=middle;spacingTop=-1;spacingLeft=3;spacingRight=3;rotatable=0;labelPosition=right;points=[];portConstraint=eastwest;strokeColor=inherit;" vertex="1" parent="sxw_OFa6wer7StP_Gr9c-41">
          <mxGeometry y="60" width="160" height="8" as="geometry" />
        </mxCell>
        <mxCell id="sxw_OFa6wer7StP_Gr9c-44" value="+ doorCount()" style="text;strokeColor=none;fillColor=none;align=left;verticalAlign=top;spacingLeft=4;spacingRight=4;overflow=hidden;rotatable=0;points=[[0,0.5],[1,0.5]];portConstraint=eastwest;whiteSpace=wrap;html=1;" vertex="1" parent="sxw_OFa6wer7StP_Gr9c-41">
          <mxGeometry y="68" width="160" height="26" as="geometry" />
        </mxCell>
        <mxCell id="sxw_OFa6wer7StP_Gr9c-45" value="Ford" style="swimlane;fontStyle=1;align=center;verticalAlign=top;childLayout=stackLayout;horizontal=1;startSize=26;horizontalStack=0;resizeParent=1;resizeParentMax=0;resizeLast=0;collapsible=1;marginBottom=0;whiteSpace=wrap;html=1;" vertex="1" parent="1">
          <mxGeometry x="40" y="600" width="160" height="94" as="geometry" />
        </mxCell>
        <mxCell id="sxw_OFa6wer7StP_Gr9c-46" value="+ model()&lt;br&gt;+ vehicleType()" style="text;strokeColor=none;fillColor=none;align=left;verticalAlign=top;spacingLeft=4;spacingRight=4;overflow=hidden;rotatable=0;points=[[0,0.5],[1,0.5]];portConstraint=eastwest;whiteSpace=wrap;html=1;" vertex="1" parent="sxw_OFa6wer7StP_Gr9c-45">
          <mxGeometry y="26" width="160" height="34" as="geometry" />
        </mxCell>
        <mxCell id="sxw_OFa6wer7StP_Gr9c-47" value="" style="line;strokeWidth=1;fillColor=none;align=left;verticalAlign=middle;spacingTop=-1;spacingLeft=3;spacingRight=3;rotatable=0;labelPosition=right;points=[];portConstraint=eastwest;strokeColor=inherit;" vertex="1" parent="sxw_OFa6wer7StP_Gr9c-45">
          <mxGeometry y="60" width="160" height="8" as="geometry" />
        </mxCell>
        <mxCell id="sxw_OFa6wer7StP_Gr9c-48" value="+doorCount()" style="text;strokeColor=none;fillColor=none;align=left;verticalAlign=top;spacingLeft=4;spacingRight=4;overflow=hidden;rotatable=0;points=[[0,0.5],[1,0.5]];portConstraint=eastwest;whiteSpace=wrap;html=1;" vertex="1" parent="sxw_OFa6wer7StP_Gr9c-45">
          <mxGeometry y="68" width="160" height="26" as="geometry" />
        </mxCell>
        <mxCell id="sxw_OFa6wer7StP_Gr9c-49" value="Toyota" style="swimlane;fontStyle=1;align=center;verticalAlign=top;childLayout=stackLayout;horizontal=1;startSize=26;horizontalStack=0;resizeParent=1;resizeParentMax=0;resizeLast=0;collapsible=1;marginBottom=0;whiteSpace=wrap;html=1;" vertex="1" parent="1">
          <mxGeometry x="360" y="300" width="160" height="94" as="geometry" />
        </mxCell>
        <mxCell id="sxw_OFa6wer7StP_Gr9c-50" value="+ model()&lt;br&gt;+ vehicleType()" style="text;strokeColor=none;fillColor=none;align=left;verticalAlign=top;spacingLeft=4;spacingRight=4;overflow=hidden;rotatable=0;points=[[0,0.5],[1,0.5]];portConstraint=eastwest;whiteSpace=wrap;html=1;" vertex="1" parent="sxw_OFa6wer7StP_Gr9c-49">
          <mxGeometry y="26" width="160" height="34" as="geometry" />
        </mxCell>
        <mxCell id="sxw_OFa6wer7StP_Gr9c-51" value="" style="line;strokeWidth=1;fillColor=none;align=left;verticalAlign=middle;spacingTop=-1;spacingLeft=3;spacingRight=3;rotatable=0;labelPosition=right;points=[];portConstraint=eastwest;strokeColor=inherit;" vertex="1" parent="sxw_OFa6wer7StP_Gr9c-49">
          <mxGeometry y="60" width="160" height="8" as="geometry" />
        </mxCell>
        <mxCell id="sxw_OFa6wer7StP_Gr9c-52" value="+doorCount()" style="text;strokeColor=none;fillColor=none;align=left;verticalAlign=top;spacingLeft=4;spacingRight=4;overflow=hidden;rotatable=0;points=[[0,0.5],[1,0.5]];portConstraint=eastwest;whiteSpace=wrap;html=1;" vertex="1" parent="sxw_OFa6wer7StP_Gr9c-49">
          <mxGeometry y="68" width="160" height="26" as="geometry" />
        </mxCell>
        <mxCell id="sxw_OFa6wer7StP_Gr9c-53" value="Dodge" style="swimlane;fontStyle=1;align=center;verticalAlign=top;childLayout=stackLayout;horizontal=1;startSize=26;horizontalStack=0;resizeParent=1;resizeParentMax=0;resizeLast=0;collapsible=1;marginBottom=0;whiteSpace=wrap;html=1;" vertex="1" parent="1">
          <mxGeometry x="560" y="730" width="160" height="100" as="geometry" />
        </mxCell>
        <mxCell id="sxw_OFa6wer7StP_Gr9c-54" value="+ model()&lt;br&gt;+ vehicleType()" style="text;strokeColor=none;fillColor=none;align=left;verticalAlign=top;spacingLeft=4;spacingRight=4;overflow=hidden;rotatable=0;points=[[0,0.5],[1,0.5]];portConstraint=eastwest;whiteSpace=wrap;html=1;" vertex="1" parent="sxw_OFa6wer7StP_Gr9c-53">
          <mxGeometry y="26" width="160" height="34" as="geometry" />
        </mxCell>
        <mxCell id="sxw_OFa6wer7StP_Gr9c-55" value="" style="line;strokeWidth=1;fillColor=none;align=left;verticalAlign=middle;spacingTop=-1;spacingLeft=3;spacingRight=3;rotatable=0;labelPosition=right;points=[];portConstraint=eastwest;strokeColor=inherit;" vertex="1" parent="sxw_OFa6wer7StP_Gr9c-53">
          <mxGeometry y="60" width="160" height="18" as="geometry" />
        </mxCell>
        <mxCell id="sxw_OFa6wer7StP_Gr9c-56" value="+doorCount()" style="text;strokeColor=none;fillColor=none;align=left;verticalAlign=top;spacingLeft=4;spacingRight=4;overflow=hidden;rotatable=0;points=[[0,0.5],[1,0.5]];portConstraint=eastwest;whiteSpace=wrap;html=1;" vertex="1" parent="sxw_OFa6wer7StP_Gr9c-53">
          <mxGeometry y="78" width="160" height="22" as="geometry" />
        </mxCell>
        <mxCell id="sxw_OFa6wer7StP_Gr9c-57" value="Tesla" style="swimlane;fontStyle=1;align=center;verticalAlign=top;childLayout=stackLayout;horizontal=1;startSize=26;horizontalStack=0;resizeParent=1;resizeParentMax=0;resizeLast=0;collapsible=1;marginBottom=0;whiteSpace=wrap;html=1;" vertex="1" parent="1">
          <mxGeometry x="640" y="240" width="160" height="100" as="geometry" />
        </mxCell>
        <mxCell id="sxw_OFa6wer7StP_Gr9c-58" value="+ model()&lt;br&gt;+ vehicleType()" style="text;strokeColor=none;fillColor=none;align=left;verticalAlign=top;spacingLeft=4;spacingRight=4;overflow=hidden;rotatable=0;points=[[0,0.5],[1,0.5]];portConstraint=eastwest;whiteSpace=wrap;html=1;" vertex="1" parent="sxw_OFa6wer7StP_Gr9c-57">
          <mxGeometry y="26" width="160" height="34" as="geometry" />
        </mxCell>
        <mxCell id="sxw_OFa6wer7StP_Gr9c-59" value="" style="line;strokeWidth=1;fillColor=none;align=left;verticalAlign=middle;spacingTop=-1;spacingLeft=3;spacingRight=3;rotatable=0;labelPosition=right;points=[];portConstraint=eastwest;strokeColor=inherit;" vertex="1" parent="sxw_OFa6wer7StP_Gr9c-57">
          <mxGeometry y="60" width="160" height="8" as="geometry" />
        </mxCell>
        <mxCell id="sxw_OFa6wer7StP_Gr9c-60" value="+doorCount()" style="text;strokeColor=none;fillColor=none;align=left;verticalAlign=top;spacingLeft=4;spacingRight=4;overflow=hidden;rotatable=0;points=[[0,0.5],[1,0.5]];portConstraint=eastwest;whiteSpace=wrap;html=1;" vertex="1" parent="sxw_OFa6wer7StP_Gr9c-57">
          <mxGeometry y="68" width="160" height="32" as="geometry" />
        </mxCell>
        <mxCell id="sxw_OFa6wer7StP_Gr9c-80" value="Truck" style="swimlane;fontStyle=1;align=center;verticalAlign=top;childLayout=stackLayout;horizontal=1;startSize=26;horizontalStack=0;resizeParent=1;resizeParentMax=0;resizeLast=0;collapsible=1;marginBottom=0;whiteSpace=wrap;html=1;" vertex="1" parent="1">
          <mxGeometry x="10" y="790" width="120" height="86" as="geometry" />
        </mxCell>
        <mxCell id="sxw_OFa6wer7StP_Gr9c-81" value="+model()" style="text;strokeColor=none;fillColor=none;align=left;verticalAlign=top;spacingLeft=4;spacingRight=4;overflow=hidden;rotatable=0;points=[[0,0.5],[1,0.5]];portConstraint=eastwest;whiteSpace=wrap;html=1;" vertex="1" parent="sxw_OFa6wer7StP_Gr9c-80">
          <mxGeometry y="26" width="120" height="26" as="geometry" />
        </mxCell>
        <mxCell id="sxw_OFa6wer7StP_Gr9c-82" value="" style="line;strokeWidth=1;fillColor=none;align=left;verticalAlign=middle;spacingTop=-1;spacingLeft=3;spacingRight=3;rotatable=0;labelPosition=right;points=[];portConstraint=eastwest;strokeColor=inherit;" vertex="1" parent="sxw_OFa6wer7StP_Gr9c-80">
          <mxGeometry y="52" width="120" height="8" as="geometry" />
        </mxCell>
        <mxCell id="sxw_OFa6wer7StP_Gr9c-83" value="-doorCount()" style="text;strokeColor=none;fillColor=none;align=left;verticalAlign=top;spacingLeft=4;spacingRight=4;overflow=hidden;rotatable=0;points=[[0,0.5],[1,0.5]];portConstraint=eastwest;whiteSpace=wrap;html=1;" vertex="1" parent="sxw_OFa6wer7StP_Gr9c-80">
          <mxGeometry y="60" width="120" height="26" as="geometry" />
        </mxCell>
        <mxCell id="sxw_OFa6wer7StP_Gr9c-84" value="Coupe" style="swimlane;fontStyle=1;align=center;verticalAlign=top;childLayout=stackLayout;horizontal=1;startSize=26;horizontalStack=0;resizeParent=1;resizeParentMax=0;resizeLast=0;collapsible=1;marginBottom=0;whiteSpace=wrap;html=1;" vertex="1" parent="1">
          <mxGeometry x="180" y="770" width="130" height="86" as="geometry" />
        </mxCell>
        <mxCell id="sxw_OFa6wer7StP_Gr9c-85" value="+model()" style="text;strokeColor=none;fillColor=none;align=left;verticalAlign=top;spacingLeft=4;spacingRight=4;overflow=hidden;rotatable=0;points=[[0,0.5],[1,0.5]];portConstraint=eastwest;whiteSpace=wrap;html=1;" vertex="1" parent="sxw_OFa6wer7StP_Gr9c-84">
          <mxGeometry y="26" width="130" height="26" as="geometry" />
        </mxCell>
        <mxCell id="sxw_OFa6wer7StP_Gr9c-86" value="" style="line;strokeWidth=1;fillColor=none;align=left;verticalAlign=middle;spacingTop=-1;spacingLeft=3;spacingRight=3;rotatable=0;labelPosition=right;points=[];portConstraint=eastwest;strokeColor=inherit;" vertex="1" parent="sxw_OFa6wer7StP_Gr9c-84">
          <mxGeometry y="52" width="130" height="8" as="geometry" />
        </mxCell>
        <mxCell id="sxw_OFa6wer7StP_Gr9c-87" value="-doorCount()" style="text;strokeColor=none;fillColor=none;align=left;verticalAlign=top;spacingLeft=4;spacingRight=4;overflow=hidden;rotatable=0;points=[[0,0.5],[1,0.5]];portConstraint=eastwest;whiteSpace=wrap;html=1;" vertex="1" parent="sxw_OFa6wer7StP_Gr9c-84">
          <mxGeometry y="60" width="130" height="26" as="geometry" />
        </mxCell>
        <mxCell id="sxw_OFa6wer7StP_Gr9c-88" value="Sedan" style="swimlane;fontStyle=1;align=center;verticalAlign=top;childLayout=stackLayout;horizontal=1;startSize=26;horizontalStack=0;resizeParent=1;resizeParentMax=0;resizeLast=0;collapsible=1;marginBottom=0;whiteSpace=wrap;html=1;" vertex="1" parent="1">
          <mxGeometry x="260" y="644" width="160" height="86" as="geometry" />
        </mxCell>
        <mxCell id="sxw_OFa6wer7StP_Gr9c-89" value="+model()" style="text;strokeColor=none;fillColor=none;align=left;verticalAlign=top;spacingLeft=4;spacingRight=4;overflow=hidden;rotatable=0;points=[[0,0.5],[1,0.5]];portConstraint=eastwest;whiteSpace=wrap;html=1;" vertex="1" parent="sxw_OFa6wer7StP_Gr9c-88">
          <mxGeometry y="26" width="160" height="26" as="geometry" />
        </mxCell>
        <mxCell id="sxw_OFa6wer7StP_Gr9c-90" value="" style="line;strokeWidth=1;fillColor=none;align=left;verticalAlign=middle;spacingTop=-1;spacingLeft=3;spacingRight=3;rotatable=0;labelPosition=right;points=[];portConstraint=eastwest;strokeColor=inherit;" vertex="1" parent="sxw_OFa6wer7StP_Gr9c-88">
          <mxGeometry y="52" width="160" height="8" as="geometry" />
        </mxCell>
        <mxCell id="sxw_OFa6wer7StP_Gr9c-91" value="+ method(type): type" style="text;strokeColor=none;fillColor=none;align=left;verticalAlign=top;spacingLeft=4;spacingRight=4;overflow=hidden;rotatable=0;points=[[0,0.5],[1,0.5]];portConstraint=eastwest;whiteSpace=wrap;html=1;" vertex="1" parent="sxw_OFa6wer7StP_Gr9c-88">
          <mxGeometry y="60" width="160" height="26" as="geometry" />
        </mxCell>
        <mxCell id="sxw_OFa6wer7StP_Gr9c-92" value="" style="endArrow=none;html=1;rounded=0;exitX=0;exitY=0;exitDx=0;exitDy=0;entryX=1;entryY=0.5;entryDx=0;entryDy=0;" edge="1" parent="1" source="sxw_OFa6wer7StP_Gr9c-88" target="sxw_OFa6wer7StP_Gr9c-46">
          <mxGeometry width="50" height="50" relative="1" as="geometry">
            <mxPoint x="400" y="620" as="sourcePoint" />
            <mxPoint x="450" y="570" as="targetPoint" />
          </mxGeometry>
        </mxCell>
        <mxCell id="sxw_OFa6wer7StP_Gr9c-93" value="" style="endArrow=none;html=1;rounded=0;exitX=0;exitY=0;exitDx=0;exitDy=0;entryX=0.813;entryY=0.923;entryDx=0;entryDy=0;entryPerimeter=0;" edge="1" parent="1" source="sxw_OFa6wer7StP_Gr9c-84" target="sxw_OFa6wer7StP_Gr9c-48">
          <mxGeometry width="50" height="50" relative="1" as="geometry">
            <mxPoint x="400" y="620" as="sourcePoint" />
            <mxPoint x="450" y="570" as="targetPoint" />
          </mxGeometry>
        </mxCell>
        <mxCell id="sxw_OFa6wer7StP_Gr9c-94" value="" style="endArrow=none;html=1;rounded=0;exitX=0.5;exitY=0;exitDx=0;exitDy=0;entryX=0.263;entryY=1.115;entryDx=0;entryDy=0;entryPerimeter=0;" edge="1" parent="1" source="sxw_OFa6wer7StP_Gr9c-80" target="sxw_OFa6wer7StP_Gr9c-48">
          <mxGeometry width="50" height="50" relative="1" as="geometry">
            <mxPoint x="400" y="620" as="sourcePoint" />
            <mxPoint x="450" y="570" as="targetPoint" />
          </mxGeometry>
        </mxCell>
        <mxCell id="sxw_OFa6wer7StP_Gr9c-95" value="Truck" style="swimlane;fontStyle=1;align=center;verticalAlign=top;childLayout=stackLayout;horizontal=1;startSize=26;horizontalStack=0;resizeParent=1;resizeParentMax=0;resizeLast=0;collapsible=1;marginBottom=0;whiteSpace=wrap;html=1;" vertex="1" parent="1">
          <mxGeometry x="650" y="566" width="160" height="86" as="geometry" />
        </mxCell>
        <mxCell id="sxw_OFa6wer7StP_Gr9c-96" value="+model()" style="text;strokeColor=none;fillColor=none;align=left;verticalAlign=top;spacingLeft=4;spacingRight=4;overflow=hidden;rotatable=0;points=[[0,0.5],[1,0.5]];portConstraint=eastwest;whiteSpace=wrap;html=1;" vertex="1" parent="sxw_OFa6wer7StP_Gr9c-95">
          <mxGeometry y="26" width="160" height="26" as="geometry" />
        </mxCell>
        <mxCell id="sxw_OFa6wer7StP_Gr9c-97" value="" style="line;strokeWidth=1;fillColor=none;align=left;verticalAlign=middle;spacingTop=-1;spacingLeft=3;spacingRight=3;rotatable=0;labelPosition=right;points=[];portConstraint=eastwest;strokeColor=inherit;" vertex="1" parent="sxw_OFa6wer7StP_Gr9c-95">
          <mxGeometry y="52" width="160" height="8" as="geometry" />
        </mxCell>
        <mxCell id="sxw_OFa6wer7StP_Gr9c-98" value="-doorCount()" style="text;strokeColor=none;fillColor=none;align=left;verticalAlign=top;spacingLeft=4;spacingRight=4;overflow=hidden;rotatable=0;points=[[0,0.5],[1,0.5]];portConstraint=eastwest;whiteSpace=wrap;html=1;" vertex="1" parent="sxw_OFa6wer7StP_Gr9c-95">
          <mxGeometry y="60" width="160" height="26" as="geometry" />
        </mxCell>
        <mxCell id="sxw_OFa6wer7StP_Gr9c-99" value="Coupe" style="swimlane;fontStyle=1;align=center;verticalAlign=top;childLayout=stackLayout;horizontal=1;startSize=26;horizontalStack=0;resizeParent=1;resizeParentMax=0;resizeLast=0;collapsible=1;marginBottom=0;whiteSpace=wrap;html=1;" vertex="1" parent="1">
          <mxGeometry x="480" y="930" width="160" height="86" as="geometry" />
        </mxCell>
        <mxCell id="sxw_OFa6wer7StP_Gr9c-100" value="+model()" style="text;strokeColor=none;fillColor=none;align=left;verticalAlign=top;spacingLeft=4;spacingRight=4;overflow=hidden;rotatable=0;points=[[0,0.5],[1,0.5]];portConstraint=eastwest;whiteSpace=wrap;html=1;" vertex="1" parent="sxw_OFa6wer7StP_Gr9c-99">
          <mxGeometry y="26" width="160" height="26" as="geometry" />
        </mxCell>
        <mxCell id="sxw_OFa6wer7StP_Gr9c-101" value="" style="line;strokeWidth=1;fillColor=none;align=left;verticalAlign=middle;spacingTop=-1;spacingLeft=3;spacingRight=3;rotatable=0;labelPosition=right;points=[];portConstraint=eastwest;strokeColor=inherit;" vertex="1" parent="sxw_OFa6wer7StP_Gr9c-99">
          <mxGeometry y="52" width="160" height="8" as="geometry" />
        </mxCell>
        <mxCell id="sxw_OFa6wer7StP_Gr9c-102" value="-doorCount()" style="text;strokeColor=none;fillColor=none;align=left;verticalAlign=top;spacingLeft=4;spacingRight=4;overflow=hidden;rotatable=0;points=[[0,0.5],[1,0.5]];portConstraint=eastwest;whiteSpace=wrap;html=1;" vertex="1" parent="sxw_OFa6wer7StP_Gr9c-99">
          <mxGeometry y="60" width="160" height="26" as="geometry" />
        </mxCell>
        <mxCell id="sxw_OFa6wer7StP_Gr9c-103" value="Sedan" style="swimlane;fontStyle=1;align=center;verticalAlign=top;childLayout=stackLayout;horizontal=1;startSize=26;horizontalStack=0;resizeParent=1;resizeParentMax=0;resizeLast=0;collapsible=1;marginBottom=0;whiteSpace=wrap;html=1;" vertex="1" parent="1">
          <mxGeometry x="680" y="920" width="160" height="86" as="geometry" />
        </mxCell>
        <mxCell id="sxw_OFa6wer7StP_Gr9c-104" value="+model()" style="text;strokeColor=none;fillColor=none;align=left;verticalAlign=top;spacingLeft=4;spacingRight=4;overflow=hidden;rotatable=0;points=[[0,0.5],[1,0.5]];portConstraint=eastwest;whiteSpace=wrap;html=1;" vertex="1" parent="sxw_OFa6wer7StP_Gr9c-103">
          <mxGeometry y="26" width="160" height="26" as="geometry" />
        </mxCell>
        <mxCell id="sxw_OFa6wer7StP_Gr9c-105" value="" style="line;strokeWidth=1;fillColor=none;align=left;verticalAlign=middle;spacingTop=-1;spacingLeft=3;spacingRight=3;rotatable=0;labelPosition=right;points=[];portConstraint=eastwest;strokeColor=inherit;" vertex="1" parent="sxw_OFa6wer7StP_Gr9c-103">
          <mxGeometry y="52" width="160" height="8" as="geometry" />
        </mxCell>
        <mxCell id="sxw_OFa6wer7StP_Gr9c-106" value="-doorCount()" style="text;strokeColor=none;fillColor=none;align=left;verticalAlign=top;spacingLeft=4;spacingRight=4;overflow=hidden;rotatable=0;points=[[0,0.5],[1,0.5]];portConstraint=eastwest;whiteSpace=wrap;html=1;" vertex="1" parent="sxw_OFa6wer7StP_Gr9c-103">
          <mxGeometry y="60" width="160" height="26" as="geometry" />
        </mxCell>
        <mxCell id="sxw_OFa6wer7StP_Gr9c-107" value="Sedan" style="swimlane;fontStyle=1;align=center;verticalAlign=top;childLayout=stackLayout;horizontal=1;startSize=26;horizontalStack=0;resizeParent=1;resizeParentMax=0;resizeLast=0;collapsible=1;marginBottom=0;whiteSpace=wrap;html=1;" vertex="1" parent="1">
          <mxGeometry x="660" y="394" width="160" height="86" as="geometry" />
        </mxCell>
        <mxCell id="sxw_OFa6wer7StP_Gr9c-108" value="+model()" style="text;strokeColor=none;fillColor=none;align=left;verticalAlign=top;spacingLeft=4;spacingRight=4;overflow=hidden;rotatable=0;points=[[0,0.5],[1,0.5]];portConstraint=eastwest;whiteSpace=wrap;html=1;" vertex="1" parent="sxw_OFa6wer7StP_Gr9c-107">
          <mxGeometry y="26" width="160" height="26" as="geometry" />
        </mxCell>
        <mxCell id="sxw_OFa6wer7StP_Gr9c-109" value="" style="line;strokeWidth=1;fillColor=none;align=left;verticalAlign=middle;spacingTop=-1;spacingLeft=3;spacingRight=3;rotatable=0;labelPosition=right;points=[];portConstraint=eastwest;strokeColor=inherit;" vertex="1" parent="sxw_OFa6wer7StP_Gr9c-107">
          <mxGeometry y="52" width="160" height="8" as="geometry" />
        </mxCell>
        <mxCell id="sxw_OFa6wer7StP_Gr9c-110" value="-doorCount()" style="text;strokeColor=none;fillColor=none;align=left;verticalAlign=top;spacingLeft=4;spacingRight=4;overflow=hidden;rotatable=0;points=[[0,0.5],[1,0.5]];portConstraint=eastwest;whiteSpace=wrap;html=1;" vertex="1" parent="sxw_OFa6wer7StP_Gr9c-107">
          <mxGeometry y="60" width="160" height="26" as="geometry" />
        </mxCell>
        <mxCell id="sxw_OFa6wer7StP_Gr9c-119" value="Sedan" style="swimlane;fontStyle=1;align=center;verticalAlign=top;childLayout=stackLayout;horizontal=1;startSize=26;horizontalStack=0;resizeParent=1;resizeParentMax=0;resizeLast=0;collapsible=1;marginBottom=0;whiteSpace=wrap;html=1;" vertex="1" parent="1">
          <mxGeometry x="440" y="160" width="160" height="86" as="geometry" />
        </mxCell>
        <mxCell id="sxw_OFa6wer7StP_Gr9c-120" value="+model()" style="text;strokeColor=none;fillColor=none;align=left;verticalAlign=top;spacingLeft=4;spacingRight=4;overflow=hidden;rotatable=0;points=[[0,0.5],[1,0.5]];portConstraint=eastwest;whiteSpace=wrap;html=1;" vertex="1" parent="sxw_OFa6wer7StP_Gr9c-119">
          <mxGeometry y="26" width="160" height="26" as="geometry" />
        </mxCell>
        <mxCell id="sxw_OFa6wer7StP_Gr9c-121" value="" style="line;strokeWidth=1;fillColor=none;align=left;verticalAlign=middle;spacingTop=-1;spacingLeft=3;spacingRight=3;rotatable=0;labelPosition=right;points=[];portConstraint=eastwest;strokeColor=inherit;" vertex="1" parent="sxw_OFa6wer7StP_Gr9c-119">
          <mxGeometry y="52" width="160" height="8" as="geometry" />
        </mxCell>
        <mxCell id="sxw_OFa6wer7StP_Gr9c-122" value="-doorCount()" style="text;strokeColor=none;fillColor=none;align=left;verticalAlign=top;spacingLeft=4;spacingRight=4;overflow=hidden;rotatable=0;points=[[0,0.5],[1,0.5]];portConstraint=eastwest;whiteSpace=wrap;html=1;" vertex="1" parent="sxw_OFa6wer7StP_Gr9c-119">
          <mxGeometry y="60" width="160" height="26" as="geometry" />
        </mxCell>
        <mxCell id="sxw_OFa6wer7StP_Gr9c-123" value="Truck" style="swimlane;fontStyle=1;align=center;verticalAlign=top;childLayout=stackLayout;horizontal=1;startSize=26;horizontalStack=0;resizeParent=1;resizeParentMax=0;resizeLast=0;collapsible=1;marginBottom=0;whiteSpace=wrap;html=1;" vertex="1" parent="1">
          <mxGeometry x="200" y="190" width="160" height="86" as="geometry" />
        </mxCell>
        <mxCell id="sxw_OFa6wer7StP_Gr9c-124" value="+model()" style="text;strokeColor=none;fillColor=none;align=left;verticalAlign=top;spacingLeft=4;spacingRight=4;overflow=hidden;rotatable=0;points=[[0,0.5],[1,0.5]];portConstraint=eastwest;whiteSpace=wrap;html=1;" vertex="1" parent="sxw_OFa6wer7StP_Gr9c-123">
          <mxGeometry y="26" width="160" height="26" as="geometry" />
        </mxCell>
        <mxCell id="sxw_OFa6wer7StP_Gr9c-125" value="" style="line;strokeWidth=1;fillColor=none;align=left;verticalAlign=middle;spacingTop=-1;spacingLeft=3;spacingRight=3;rotatable=0;labelPosition=right;points=[];portConstraint=eastwest;strokeColor=inherit;" vertex="1" parent="sxw_OFa6wer7StP_Gr9c-123">
          <mxGeometry y="52" width="160" height="8" as="geometry" />
        </mxCell>
        <mxCell id="sxw_OFa6wer7StP_Gr9c-126" value="-doorCount()" style="text;strokeColor=none;fillColor=none;align=left;verticalAlign=top;spacingLeft=4;spacingRight=4;overflow=hidden;rotatable=0;points=[[0,0.5],[1,0.5]];portConstraint=eastwest;whiteSpace=wrap;html=1;" vertex="1" parent="sxw_OFa6wer7StP_Gr9c-123">
          <mxGeometry y="60" width="160" height="26" as="geometry" />
        </mxCell>
        <mxCell id="sxw_OFa6wer7StP_Gr9c-127" value="Truck" style="swimlane;fontStyle=1;align=center;verticalAlign=top;childLayout=stackLayout;horizontal=1;startSize=26;horizontalStack=0;resizeParent=1;resizeParentMax=0;resizeLast=0;collapsible=1;marginBottom=0;whiteSpace=wrap;html=1;" vertex="1" parent="1">
          <mxGeometry y="160" width="140" height="86" as="geometry" />
        </mxCell>
        <mxCell id="sxw_OFa6wer7StP_Gr9c-128" value="+model()" style="text;strokeColor=none;fillColor=none;align=left;verticalAlign=top;spacingLeft=4;spacingRight=4;overflow=hidden;rotatable=0;points=[[0,0.5],[1,0.5]];portConstraint=eastwest;whiteSpace=wrap;html=1;" vertex="1" parent="sxw_OFa6wer7StP_Gr9c-127">
          <mxGeometry y="26" width="140" height="26" as="geometry" />
        </mxCell>
        <mxCell id="sxw_OFa6wer7StP_Gr9c-129" value="" style="line;strokeWidth=1;fillColor=none;align=left;verticalAlign=middle;spacingTop=-1;spacingLeft=3;spacingRight=3;rotatable=0;labelPosition=right;points=[];portConstraint=eastwest;strokeColor=inherit;" vertex="1" parent="sxw_OFa6wer7StP_Gr9c-127">
          <mxGeometry y="52" width="140" height="8" as="geometry" />
        </mxCell>
        <mxCell id="sxw_OFa6wer7StP_Gr9c-130" value="-doorCount()" style="text;strokeColor=none;fillColor=none;align=left;verticalAlign=top;spacingLeft=4;spacingRight=4;overflow=hidden;rotatable=0;points=[[0,0.5],[1,0.5]];portConstraint=eastwest;whiteSpace=wrap;html=1;" vertex="1" parent="sxw_OFa6wer7StP_Gr9c-127">
          <mxGeometry y="60" width="140" height="26" as="geometry" />
        </mxCell>
        <mxCell id="sxw_OFa6wer7StP_Gr9c-131" value="Sedan" style="swimlane;fontStyle=1;align=center;verticalAlign=top;childLayout=stackLayout;horizontal=1;startSize=26;horizontalStack=0;resizeParent=1;resizeParentMax=0;resizeLast=0;collapsible=1;marginBottom=0;whiteSpace=wrap;html=1;" vertex="1" parent="1">
          <mxGeometry x="50" y="460" width="140" height="86" as="geometry" />
        </mxCell>
        <mxCell id="sxw_OFa6wer7StP_Gr9c-132" value="+model()" style="text;strokeColor=none;fillColor=none;align=left;verticalAlign=top;spacingLeft=4;spacingRight=4;overflow=hidden;rotatable=0;points=[[0,0.5],[1,0.5]];portConstraint=eastwest;whiteSpace=wrap;html=1;" vertex="1" parent="sxw_OFa6wer7StP_Gr9c-131">
          <mxGeometry y="26" width="140" height="26" as="geometry" />
        </mxCell>
        <mxCell id="sxw_OFa6wer7StP_Gr9c-133" value="" style="line;strokeWidth=1;fillColor=none;align=left;verticalAlign=middle;spacingTop=-1;spacingLeft=3;spacingRight=3;rotatable=0;labelPosition=right;points=[];portConstraint=eastwest;strokeColor=inherit;" vertex="1" parent="sxw_OFa6wer7StP_Gr9c-131">
          <mxGeometry y="52" width="140" height="8" as="geometry" />
        </mxCell>
        <mxCell id="sxw_OFa6wer7StP_Gr9c-134" value="-doorCount()" style="text;strokeColor=none;fillColor=none;align=left;verticalAlign=top;spacingLeft=4;spacingRight=4;overflow=hidden;rotatable=0;points=[[0,0.5],[1,0.5]];portConstraint=eastwest;whiteSpace=wrap;html=1;" vertex="1" parent="sxw_OFa6wer7StP_Gr9c-131">
          <mxGeometry y="60" width="140" height="26" as="geometry" />
        </mxCell>
        <mxCell id="sxw_OFa6wer7StP_Gr9c-135" value="" style="endArrow=none;html=1;rounded=0;exitX=0.613;exitY=-0.012;exitDx=0;exitDy=0;exitPerimeter=0;entryX=0.363;entryY=1;entryDx=0;entryDy=0;entryPerimeter=0;" edge="1" parent="1" source="sxw_OFa6wer7StP_Gr9c-107" target="sxw_OFa6wer7StP_Gr9c-60">
          <mxGeometry width="50" height="50" relative="1" as="geometry">
            <mxPoint x="400" y="270" as="sourcePoint" />
            <mxPoint x="450" y="220" as="targetPoint" />
          </mxGeometry>
        </mxCell>
        <mxCell id="sxw_OFa6wer7StP_Gr9c-136" value="&lt;p style=&quot;margin:0px;margin-top:4px;text-align:center;&quot;&gt;&lt;i&gt;&amp;lt;&amp;lt;Interface&amp;gt;&amp;gt;&lt;/i&gt;&lt;br&gt;&lt;b&gt;Low&amp;nbsp;Emission Fuel&lt;/b&gt;&lt;/p&gt;&lt;hr size=&quot;1&quot;&gt;&lt;p style=&quot;margin:0px;margin-left:4px;&quot;&gt;+hybrid()&lt;/p&gt;&lt;p style=&quot;margin:0px;margin-left:4px;&quot;&gt;+electric()&lt;/p&gt;&lt;hr size=&quot;1&quot;&gt;&lt;p style=&quot;margin:0px;margin-left:4px;&quot;&gt;&lt;br&gt;&lt;/p&gt;" style="verticalAlign=top;align=left;overflow=fill;fontSize=12;fontFamily=Helvetica;html=1;whiteSpace=wrap;" vertex="1" parent="1">
          <mxGeometry x="610" y="20" width="190" height="140" as="geometry" />
        </mxCell>
        <mxCell id="sxw_OFa6wer7StP_Gr9c-138" value="" style="endArrow=none;dashed=1;html=1;dashPattern=1 3;strokeWidth=2;rounded=0;entryX=0.5;entryY=1;entryDx=0;entryDy=0;exitX=0.431;exitY=-0.032;exitDx=0;exitDy=0;exitPerimeter=0;" edge="1" parent="1" source="sxw_OFa6wer7StP_Gr9c-49" target="sxw_OFa6wer7StP_Gr9c-136">
          <mxGeometry width="50" height="50" relative="1" as="geometry">
            <mxPoint x="400" y="210" as="sourcePoint" />
            <mxPoint x="450" y="160" as="targetPoint" />
            <Array as="points">
              <mxPoint x="600" y="270" />
            </Array>
          </mxGeometry>
        </mxCell>
        <mxCell id="sxw_OFa6wer7StP_Gr9c-139" value="" style="endArrow=none;dashed=1;html=1;dashPattern=1 3;strokeWidth=2;rounded=0;entryX=1;entryY=0.5;entryDx=0;entryDy=0;exitX=0.638;exitY=-0.03;exitDx=0;exitDy=0;exitPerimeter=0;" edge="1" parent="1" source="sxw_OFa6wer7StP_Gr9c-57" target="sxw_OFa6wer7StP_Gr9c-136">
          <mxGeometry width="50" height="50" relative="1" as="geometry">
            <mxPoint x="400" y="210" as="sourcePoint" />
            <mxPoint x="450" y="160" as="targetPoint" />
            <Array as="points">
              <mxPoint x="830" y="190" />
            </Array>
          </mxGeometry>
        </mxCell>
        <mxCell id="sxw_OFa6wer7StP_Gr9c-140" value="" style="endArrow=none;dashed=1;html=1;dashPattern=1 3;strokeWidth=2;rounded=0;entryX=0;entryY=0.5;entryDx=0;entryDy=0;exitX=0.869;exitY=-0.032;exitDx=0;exitDy=0;exitPerimeter=0;" edge="1" parent="1" source="sxw_OFa6wer7StP_Gr9c-41" target="sxw_OFa6wer7StP_Gr9c-136">
          <mxGeometry width="50" height="50" relative="1" as="geometry">
            <mxPoint x="400" y="210" as="sourcePoint" />
            <mxPoint x="450" y="160" as="targetPoint" />
            <Array as="points">
              <mxPoint x="190" y="20" />
            </Array>
          </mxGeometry>
        </mxCell>
        <mxCell id="sxw_OFa6wer7StP_Gr9c-141" value="" style="endArrow=none;html=1;rounded=0;exitX=0.25;exitY=0;exitDx=0;exitDy=0;entryX=0.744;entryY=1.077;entryDx=0;entryDy=0;entryPerimeter=0;" edge="1" parent="1" source="sxw_OFa6wer7StP_Gr9c-49" target="sxw_OFa6wer7StP_Gr9c-126">
          <mxGeometry width="50" height="50" relative="1" as="geometry">
            <mxPoint x="400" y="210" as="sourcePoint" />
            <mxPoint x="450" y="160" as="targetPoint" />
          </mxGeometry>
        </mxCell>
        <mxCell id="sxw_OFa6wer7StP_Gr9c-143" value="Coupe" style="swimlane;fontStyle=1;align=center;verticalAlign=top;childLayout=stackLayout;horizontal=1;startSize=26;horizontalStack=0;resizeParent=1;resizeParentMax=0;resizeLast=0;collapsible=1;marginBottom=0;whiteSpace=wrap;html=1;" vertex="1" parent="1">
          <mxGeometry x="10" y="30" width="130" height="86" as="geometry" />
        </mxCell>
        <mxCell id="sxw_OFa6wer7StP_Gr9c-144" value="+model()" style="text;strokeColor=none;fillColor=none;align=left;verticalAlign=top;spacingLeft=4;spacingRight=4;overflow=hidden;rotatable=0;points=[[0,0.5],[1,0.5]];portConstraint=eastwest;whiteSpace=wrap;html=1;" vertex="1" parent="sxw_OFa6wer7StP_Gr9c-143">
          <mxGeometry y="26" width="130" height="26" as="geometry" />
        </mxCell>
        <mxCell id="sxw_OFa6wer7StP_Gr9c-145" value="" style="line;strokeWidth=1;fillColor=none;align=left;verticalAlign=middle;spacingTop=-1;spacingLeft=3;spacingRight=3;rotatable=0;labelPosition=right;points=[];portConstraint=eastwest;strokeColor=inherit;" vertex="1" parent="sxw_OFa6wer7StP_Gr9c-143">
          <mxGeometry y="52" width="130" height="8" as="geometry" />
        </mxCell>
        <mxCell id="sxw_OFa6wer7StP_Gr9c-146" value="-doorCount()" style="text;strokeColor=none;fillColor=none;align=left;verticalAlign=top;spacingLeft=4;spacingRight=4;overflow=hidden;rotatable=0;points=[[0,0.5],[1,0.5]];portConstraint=eastwest;whiteSpace=wrap;html=1;" vertex="1" parent="sxw_OFa6wer7StP_Gr9c-143">
          <mxGeometry y="60" width="130" height="26" as="geometry" />
        </mxCell>
        <mxCell id="sxw_OFa6wer7StP_Gr9c-147" value="" style="endArrow=none;html=1;rounded=0;exitX=0.25;exitY=0;exitDx=0;exitDy=0;entryX=-0.019;entryY=1.038;entryDx=0;entryDy=0;entryPerimeter=0;" edge="1" parent="1" source="sxw_OFa6wer7StP_Gr9c-49" target="sxw_OFa6wer7StP_Gr9c-122">
          <mxGeometry width="50" height="50" relative="1" as="geometry">
            <mxPoint x="400" y="270" as="sourcePoint" />
            <mxPoint x="450" y="220" as="targetPoint" />
          </mxGeometry>
        </mxCell>
        <mxCell id="sxw_OFa6wer7StP_Gr9c-148" value="Coupe" style="swimlane;fontStyle=1;align=center;verticalAlign=top;childLayout=stackLayout;horizontal=1;startSize=26;horizontalStack=0;resizeParent=1;resizeParentMax=0;resizeLast=0;collapsible=1;marginBottom=0;whiteSpace=wrap;html=1;" vertex="1" parent="1">
          <mxGeometry x="250" y="74" width="160" height="86" as="geometry" />
        </mxCell>
        <mxCell id="sxw_OFa6wer7StP_Gr9c-149" value="+model()" style="text;strokeColor=none;fillColor=none;align=left;verticalAlign=top;spacingLeft=4;spacingRight=4;overflow=hidden;rotatable=0;points=[[0,0.5],[1,0.5]];portConstraint=eastwest;whiteSpace=wrap;html=1;" vertex="1" parent="sxw_OFa6wer7StP_Gr9c-148">
          <mxGeometry y="26" width="160" height="26" as="geometry" />
        </mxCell>
        <mxCell id="sxw_OFa6wer7StP_Gr9c-150" value="" style="line;strokeWidth=1;fillColor=none;align=left;verticalAlign=middle;spacingTop=-1;spacingLeft=3;spacingRight=3;rotatable=0;labelPosition=right;points=[];portConstraint=eastwest;strokeColor=inherit;" vertex="1" parent="sxw_OFa6wer7StP_Gr9c-148">
          <mxGeometry y="52" width="160" height="8" as="geometry" />
        </mxCell>
        <mxCell id="sxw_OFa6wer7StP_Gr9c-151" value="-doorCount()" style="text;strokeColor=none;fillColor=none;align=left;verticalAlign=top;spacingLeft=4;spacingRight=4;overflow=hidden;rotatable=0;points=[[0,0.5],[1,0.5]];portConstraint=eastwest;whiteSpace=wrap;html=1;" vertex="1" parent="sxw_OFa6wer7StP_Gr9c-148">
          <mxGeometry y="60" width="160" height="26" as="geometry" />
        </mxCell>
        <mxCell id="sxw_OFa6wer7StP_Gr9c-153" value="" style="endArrow=none;html=1;rounded=0;entryX=0.9;entryY=1.077;entryDx=0;entryDy=0;entryPerimeter=0;" edge="1" parent="1" target="sxw_OFa6wer7StP_Gr9c-151">
          <mxGeometry width="50" height="50" relative="1" as="geometry">
            <mxPoint x="400" y="300" as="sourcePoint" />
            <mxPoint x="450" y="220" as="targetPoint" />
          </mxGeometry>
        </mxCell>
        <mxCell id="sxw_OFa6wer7StP_Gr9c-154" value="" style="endArrow=none;html=1;rounded=0;exitX=0.75;exitY=0;exitDx=0;exitDy=0;entryX=0.992;entryY=0.769;entryDx=0;entryDy=0;entryPerimeter=0;" edge="1" parent="1" source="sxw_OFa6wer7StP_Gr9c-41" target="sxw_OFa6wer7StP_Gr9c-146">
          <mxGeometry width="50" height="50" relative="1" as="geometry">
            <mxPoint x="400" y="270" as="sourcePoint" />
            <mxPoint x="450" y="220" as="targetPoint" />
          </mxGeometry>
        </mxCell>
        <mxCell id="sxw_OFa6wer7StP_Gr9c-155" value="" style="endArrow=none;html=1;rounded=0;exitX=0.313;exitY=-0.011;exitDx=0;exitDy=0;exitPerimeter=0;entryX=0.586;entryY=1;entryDx=0;entryDy=0;entryPerimeter=0;" edge="1" parent="1" source="sxw_OFa6wer7StP_Gr9c-41" target="sxw_OFa6wer7StP_Gr9c-130">
          <mxGeometry width="50" height="50" relative="1" as="geometry">
            <mxPoint x="400" y="270" as="sourcePoint" />
            <mxPoint x="450" y="220" as="targetPoint" />
          </mxGeometry>
        </mxCell>
        <mxCell id="sxw_OFa6wer7StP_Gr9c-156" value="" style="endArrow=none;html=1;rounded=0;exitX=0.731;exitY=1.038;exitDx=0;exitDy=0;exitPerimeter=0;entryX=0.75;entryY=0;entryDx=0;entryDy=0;" edge="1" parent="1" source="sxw_OFa6wer7StP_Gr9c-44" target="sxw_OFa6wer7StP_Gr9c-131">
          <mxGeometry width="50" height="50" relative="1" as="geometry">
            <mxPoint x="400" y="480" as="sourcePoint" />
            <mxPoint x="450" y="430" as="targetPoint" />
          </mxGeometry>
        </mxCell>
        <mxCell id="sxw_OFa6wer7StP_Gr9c-157" value="" style="endArrow=none;html=1;rounded=0;exitX=0.606;exitY=-0.012;exitDx=0;exitDy=0;exitPerimeter=0;entryX=0.438;entryY=1.091;entryDx=0;entryDy=0;entryPerimeter=0;" edge="1" parent="1" source="sxw_OFa6wer7StP_Gr9c-99" target="sxw_OFa6wer7StP_Gr9c-56">
          <mxGeometry width="50" height="50" relative="1" as="geometry">
            <mxPoint x="400" y="830" as="sourcePoint" />
            <mxPoint x="450" y="780" as="targetPoint" />
          </mxGeometry>
        </mxCell>
        <mxCell id="sxw_OFa6wer7StP_Gr9c-158" value="" style="endArrow=none;html=1;rounded=0;exitX=0.544;exitY=-0.012;exitDx=0;exitDy=0;exitPerimeter=0;entryX=0.863;entryY=1.045;entryDx=0;entryDy=0;entryPerimeter=0;" edge="1" parent="1" source="sxw_OFa6wer7StP_Gr9c-103" target="sxw_OFa6wer7StP_Gr9c-56">
          <mxGeometry width="50" height="50" relative="1" as="geometry">
            <mxPoint x="400" y="830" as="sourcePoint" />
            <mxPoint x="450" y="780" as="targetPoint" />
          </mxGeometry>
        </mxCell>
        <mxCell id="sxw_OFa6wer7StP_Gr9c-159" value="" style="endArrow=none;html=1;rounded=0;entryX=0.831;entryY=-0.02;entryDx=0;entryDy=0;entryPerimeter=0;exitX=0.563;exitY=0.923;exitDx=0;exitDy=0;exitPerimeter=0;" edge="1" parent="1" source="sxw_OFa6wer7StP_Gr9c-98" target="sxw_OFa6wer7StP_Gr9c-53">
          <mxGeometry width="50" height="50" relative="1" as="geometry">
            <mxPoint x="400" y="830" as="sourcePoint" />
            <mxPoint x="450" y="780" as="targetPoint" />
          </mxGeometry>
        </mxCell>
        <mxCell id="sxw_OFa6wer7StP_Gr9c-160" value="&lt;p style=&quot;margin:0px;margin-top:4px;text-align:center;&quot;&gt;&lt;i&gt;&amp;lt;&amp;lt;Interface&amp;gt;&amp;gt;&lt;/i&gt;&lt;br&gt;&lt;b&gt;Gasoline&lt;/b&gt;&lt;/p&gt;&lt;hr size=&quot;1&quot;&gt;&lt;p style=&quot;margin:0px;margin-left:4px;&quot;&gt;+ diesel()&lt;br&gt;+ gasoline()&lt;/p&gt;&lt;hr size=&quot;1&quot;&gt;&lt;p style=&quot;margin:0px;margin-left:4px;&quot;&gt;&lt;br&gt;&lt;/p&gt;" style="verticalAlign=top;align=left;overflow=fill;fontSize=12;fontFamily=Helvetica;html=1;whiteSpace=wrap;" vertex="1" parent="1">
          <mxGeometry x="100" y="930" width="190" height="140" as="geometry" />
        </mxCell>
        <mxCell id="sxw_OFa6wer7StP_Gr9c-161" value="" style="endArrow=none;dashed=1;html=1;dashPattern=1 3;strokeWidth=2;rounded=0;exitX=1.011;exitY=0.193;exitDx=0;exitDy=0;exitPerimeter=0;entryX=0;entryY=1;entryDx=0;entryDy=0;entryPerimeter=0;" edge="1" parent="1" source="sxw_OFa6wer7StP_Gr9c-160" target="sxw_OFa6wer7StP_Gr9c-56">
          <mxGeometry width="50" height="50" relative="1" as="geometry">
            <mxPoint x="400" y="830" as="sourcePoint" />
            <mxPoint x="450" y="780" as="targetPoint" />
          </mxGeometry>
        </mxCell>
        <mxCell id="sxw_OFa6wer7StP_Gr9c-162" value="" style="endArrow=none;dashed=1;html=1;dashPattern=1 3;strokeWidth=2;rounded=0;exitX=0.311;exitY=-0.014;exitDx=0;exitDy=0;exitPerimeter=0;entryX=0.656;entryY=0.962;entryDx=0;entryDy=0;entryPerimeter=0;" edge="1" parent="1" source="sxw_OFa6wer7StP_Gr9c-160" target="sxw_OFa6wer7StP_Gr9c-48">
          <mxGeometry width="50" height="50" relative="1" as="geometry">
            <mxPoint x="400" y="830" as="sourcePoint" />
            <mxPoint x="450" y="780" as="targetPoint" />
          </mxGeometry>
        </mxCell>
      </root>
    </mxGraphModel>
  </diagram>
</mxfile>
